<?xml version="1.0" encoding="utf-8"?>
<!-- Generator: Adobe Illustrator 21.0.2, SVG Export Plug-In . SVG Version: 6.00 Build 0)  -->
<svg version="1.1" id="Layer_1" xmlns="http://www.w3.org/2000/svg" xmlns:xlink="http://www.w3.org/1999/xlink" x="0px" y="0px"
	 viewBox="0 0 156 40" style="enable-background:new 0 0 156 40;" xml:space="preserve">
<style type="text/css">
	.st0{fill:#FFFFFF;}
</style>
<g>
	<g>
		<path class="st0" d="M66.4,31.5c-0.2-0.2-0.4-0.4-0.5-0.7l-9.7-14.7V31c0,0.2-0.1,0.4-0.2,0.6c-0.2,0.2-0.3,0.2-0.6,0.2h-1.2
			c-0.2,0-0.4-0.1-0.6-0.2c-0.2-0.2-0.2-0.3-0.2-0.6V11.6c0-0.2,0.1-0.4,0.2-0.6c0.2-0.2,0.3-0.2,0.6-0.2h1c0.3,0,0.5,0.1,0.7,0.2
			c0.2,0.2,0.4,0.4,0.5,0.7L66,26.3V11.6c0-0.2,0.1-0.4,0.2-0.6c0.2-0.2,0.3-0.2,0.6-0.2h1.2c0.2,0,0.4,0.1,0.6,0.2
			c0.2,0.2,0.2,0.3,0.2,0.6V31c0,0.2-0.1,0.4-0.2,0.6c-0.2,0.2-0.3,0.2-0.6,0.2h-1C66.8,31.8,66.6,31.7,66.4,31.5z"/>
	</g>
	<g>
		<path class="st0" d="M83,21.9v-0.4c0-1-0.3-1.7-1-2.3c-0.6-0.5-1.5-0.8-2.5-0.8c-0.8,0-1.4,0.1-1.9,0.4c-0.4,0.3-0.9,0.7-1.3,1.2
			c-0.1,0.2-0.3,0.3-0.4,0.3c-0.1,0.1-0.3,0.1-0.6,0.1h-0.9c-0.2,0-0.4-0.1-0.6-0.2c-0.2-0.2-0.2-0.3-0.2-0.6
			c0.1-0.6,0.4-1.2,0.9-1.8c0.5-0.6,1.2-1.1,2.1-1.5c0.9-0.4,1.8-0.6,2.8-0.6c1.9,0,3.4,0.5,4.5,1.6c1.1,1,1.7,2.5,1.7,4.4V31
			c0,0.2-0.1,0.4-0.2,0.6c-0.2,0.2-0.3,0.2-0.6,0.2h-1.1c-0.2,0-0.4-0.1-0.6-0.2C83.1,31.4,83,31.2,83,31v-1.2c-0.3,0.7-1,1.3-2,1.7
			c-1,0.4-2.1,0.6-3.1,0.6c-1,0-1.9-0.2-2.7-0.6c-0.8-0.4-1.4-0.9-1.8-1.5c-0.4-0.6-0.6-1.4-0.6-2.2c0-1.5,0.6-2.7,1.7-3.5
			c1.1-0.8,2.6-1.4,4.5-1.7L83,21.9z M83,24.3l-3.5,0.6c-1.3,0.2-2.3,0.5-3,1c-0.7,0.4-1.1,1-1.1,1.7c0,0.5,0.2,0.9,0.7,1.3
			c0.5,0.4,1.2,0.6,2.1,0.6c1.4,0,2.6-0.4,3.5-1.2c0.9-0.8,1.3-1.9,1.3-3.2V24.3z"/>
	</g>
	<g>
		<path class="st0" d="M96.4,31.8h-1.1c-0.4,0-0.7-0.2-0.9-0.7l-6-13.9c0-0.1,0-0.1,0-0.2c0-0.2,0.1-0.4,0.2-0.5
			c0.1-0.1,0.3-0.2,0.5-0.2h1.1c0.5,0,0.8,0.2,1,0.7l4.6,10.9l4.6-10.9c0.2-0.5,0.5-0.7,0.9-0.7h1.2c0.2,0,0.4,0.1,0.5,0.2
			c0.1,0.1,0.2,0.3,0.2,0.5c0,0.1,0,0.1,0,0.2l-6,13.9C97.1,31.5,96.8,31.8,96.4,31.8z"/>
	</g>
	<g>
		<path class="st0" d="M109.2,13.6c-0.2,0.2-0.3,0.2-0.6,0.2H107c-0.2,0-0.4-0.1-0.6-0.2c-0.2-0.2-0.2-0.3-0.2-0.6v-1.7
			c0-0.2,0.1-0.4,0.2-0.6c0.2-0.2,0.3-0.2,0.6-0.2h1.7c0.2,0,0.4,0.1,0.6,0.2c0.2,0.2,0.2,0.3,0.2,0.6V13
			C109.5,13.2,109.4,13.4,109.2,13.6z M108.9,31.5c-0.2,0.2-0.3,0.2-0.6,0.2h-1.1c-0.2,0-0.4-0.1-0.6-0.2c-0.2-0.2-0.2-0.3-0.2-0.6
			V17c0-0.2,0.1-0.4,0.2-0.6c0.2-0.2,0.3-0.2,0.6-0.2h1.1c0.2,0,0.4,0.1,0.6,0.2c0.2,0.2,0.2,0.3,0.2,0.6v14
			C109.2,31.2,109.1,31.4,108.9,31.5z"/>
	</g>
	<g>
		<path class="st0" d="M124,27.1c0.1-0.3,0.3-0.5,0.4-0.6c0.1-0.1,0.3-0.2,0.6-0.2h0.9c0.2,0,0.4,0.1,0.6,0.2
			c0.2,0.1,0.2,0.3,0.2,0.5c0,0.7-0.3,1.4-0.8,2.2c-0.5,0.8-1.3,1.4-2.3,2s-2.2,0.8-3.6,0.8c-1.4,0-2.6-0.3-3.7-0.9
			c-1-0.6-1.8-1.4-2.4-2.5c-0.6-1-0.9-2.2-0.9-3.5c0-0.2,0-0.7,0-1.4c0-0.5,0-0.8,0-1c0.2-2,0.9-3.7,2.1-5c1.2-1.3,2.8-1.9,4.9-1.9
			c1.4,0,2.6,0.3,3.6,0.8c1,0.5,1.8,1.2,2.3,1.9c0.5,0.8,0.8,1.5,0.9,2.2c0,0.2-0.1,0.4-0.2,0.6c-0.2,0.2-0.4,0.2-0.6,0.2H125
			c-0.2,0-0.4-0.1-0.6-0.2c-0.1-0.1-0.3-0.3-0.4-0.6c-0.7-1.6-2-2.3-4-2.3c-1.1,0-2.1,0.4-2.9,1.1c-0.8,0.7-1.3,1.9-1.4,3.4
			c0,0.2,0,0.6,0,1.1c0,0.5,0,0.8,0,1c0.1,1.5,0.6,2.6,1.4,3.4c0.8,0.7,1.8,1.1,2.9,1.1C122,29.5,123.3,28.7,124,27.1z"/>
	</g>
	<g>
		<path class="st0" d="M139.6,21.9v-0.4c0-1-0.3-1.7-1-2.3c-0.6-0.5-1.5-0.8-2.5-0.8c-0.8,0-1.4,0.1-1.9,0.4
			c-0.4,0.3-0.9,0.7-1.3,1.2c-0.1,0.2-0.3,0.3-0.4,0.3c-0.1,0.1-0.3,0.1-0.6,0.1h-0.9c-0.2,0-0.4-0.1-0.6-0.2
			c-0.2-0.2-0.2-0.3-0.2-0.6c0.1-0.6,0.4-1.2,0.9-1.8c0.5-0.6,1.2-1.1,2.1-1.5c0.9-0.4,1.8-0.6,2.8-0.6c1.9,0,3.4,0.5,4.5,1.6
			c1.1,1,1.7,2.5,1.7,4.4V31c0,0.2-0.1,0.4-0.2,0.6c-0.2,0.2-0.3,0.2-0.6,0.2h-1.1c-0.2,0-0.4-0.1-0.6-0.2c-0.2-0.2-0.2-0.3-0.2-0.6
			v-1.2c-0.3,0.7-1,1.3-2,1.7c-1,0.4-2.1,0.6-3.1,0.6c-1,0-1.9-0.2-2.7-0.6c-0.8-0.4-1.4-0.9-1.8-1.5c-0.4-0.6-0.6-1.4-0.6-2.2
			c0-1.5,0.6-2.7,1.7-3.5c1.1-0.8,2.6-1.4,4.5-1.7L139.6,21.9z M139.6,24.3l-3.5,0.6c-1.3,0.2-2.3,0.5-3,1c-0.7,0.4-1.1,1-1.1,1.7
			c0,0.5,0.2,0.9,0.7,1.3c0.5,0.4,1.2,0.6,2.1,0.6c1.4,0,2.6-0.4,3.5-1.2c0.9-0.8,1.3-1.9,1.3-3.2V24.3z"/>
	</g>
	<g>
		<path class="st0" d="M151.1,28.5c0.3,0.5,1,0.7,2,0.7h1.6c0.2,0,0.4,0.1,0.6,0.2c0.2,0.2,0.2,0.3,0.2,0.6v1c0,0.2-0.1,0.4-0.2,0.6
			c-0.2,0.2-0.3,0.2-0.6,0.2h-1.9c-1.7,0-2.9-0.4-3.7-1.3c-0.8-0.9-1.2-2.2-1.2-3.9v-7.8h-2.2c-0.2,0-0.4-0.1-0.6-0.2
			c-0.2-0.2-0.2-0.3-0.2-0.6v-1c0-0.2,0.1-0.4,0.2-0.6c0.2-0.2,0.3-0.2,0.6-0.2h2.2v-4.9c0-0.2,0.1-0.4,0.2-0.6
			c0.2-0.2,0.3-0.2,0.6-0.2h1.1c0.2,0,0.4,0.1,0.6,0.2c0.2,0.2,0.2,0.3,0.2,0.6v4.9h3.8c0.2,0,0.4,0.1,0.6,0.2
			c0.2,0.2,0.2,0.3,0.2,0.6v1c0,0.2-0.1,0.4-0.2,0.6c-0.2,0.2-0.3,0.2-0.6,0.2h-3.8v7.8C150.6,27.4,150.8,28,151.1,28.5z"/>
	</g>
</g>
<g>
	<path class="st0" d="M18.7,13.1C18.7,13.1,18.8,13.1,18.7,13.1c0.7-0.1,1.1-0.6,1.2-1.1l0,0c0-2-0.2-4-0.6-5.9l-0.2-0.8
		c-0.2-0.8-0.6-1.5-1.3-2c-0.7-0.5-1.5-0.6-2.4-0.5c-0.1,0-0.2,0.1-0.4,0.1c-3.6,1.2-6.6,3.5-8.7,6.6c-2.1,3.1-3.2,6.7-3.2,10.4
		l0,0.3c0.1,0.4,0.3,0.7,0.4,0.8c0.5,0.5,0.6,1.4,0,1.9c-0.5,0.5-1.4,0.6-1.9,0c-0.7-0.7-1.1-1.5-1.2-2.5c0,0,0,0,0-0.1l0-0.3
		c0,0,0,0,0-0.1C0.4,15.7,1.7,11.5,4.1,8c2.5-3.6,6-6.2,10.1-7.6c0,0,0,0,0,0c0.2-0.1,0.5-0.1,0.7-0.2c1.5-0.3,3.1,0,4.4,0.9
		s2.2,2.2,2.5,3.7l0.2,0.8c0.5,2.4,0.7,4.9,0.6,7.3c0,0,0,0,0,0.1l0,0c-0.1,1.5-1.2,2.8-2.8,2.9c-0.1,0-0.1,0-0.2,0c0,0-0.1,0-0.1,0
		l0,0c-0.3,0-0.6,0-0.9,0l-0.7,0.1c0,0-0.1,0-0.1,0c-5,0.2-9.2,3.9-9.9,8.9c-0.3,2.3,0.1,4.5,1.2,6.5c1.1,1.9,2.7,3.5,4.7,4.4
		l0.5,0.3c1.3,0.5,2.7,0.9,4,1.1c5.5,0.8,11-1,15-4.9l0.2-0.2c0.8-0.9,1.4-2,1.6-3.2c0.2-1.2,0-2.4-0.6-3.5l0-0.1
		c-1.9-3.5-4.8-6.3-8.4-7.8c0,0,0,0,0,0l-0.1,0c-1-0.5-1.6-1.4-1.7-2.5c0-0.3,0-0.6,0-0.8c0,0,0,0,0-0.1l0-0.1
		c0.8-3.5,2.1-6.9,4-9.9c0,0,0,0,0,0l0.1-0.1c0.4-0.7,1.2-1.2,2-1.4c0.8-0.2,1.6,0,2.3,0.4l0,0c0,0,0,0,0.1,0
		c4.3,3,7.2,7.5,8.2,12.7c0.3,1.6,0.4,3.1,0.4,4.7l0,0.1c0,0,0,0.1,0,0.1c-0.1,1-0.5,1.9-1.2,2.6c-0.5,0.5-1.4,0.5-1.9,0
		c-0.5-0.5-0.5-1.4,0-1.9c0.2-0.2,0.4-0.5,0.4-0.9l0,0c0-1.4-0.1-2.7-0.3-4.1c-0.8-4.2-3.1-7.8-6.4-10.4l0,0
		c-0.2-0.2-0.5-0.3-0.8-0.2c-0.4,0-0.7,0.3-0.9,0.6l0,0c-1.4,2.4-2.4,5-3.1,7.7l0,0c0,0.1,0,0.2,0,0.4c0,0.4,0.3,0.7,0.6,0.9l0,0
		c3.9,1.9,7.1,5,9.2,8.8c0,0,0,0,0,0l0,0.1c0.8,1.6,1.1,3.4,0.9,5.1c-0.3,1.8-1,3.4-2.3,4.7l-0.2,0.2c0,0,0,0,0,0
		c-3.9,3.8-8.9,5.9-14.3,5.9c-1,0-2-0.1-3-0.2c-1.6-0.2-3.2-0.7-4.7-1.3c0,0,0,0-0.1,0l-0.6-0.3C10.1,37,8,35,6.7,32.6
		c-1.4-2.5-1.9-5.4-1.5-8.2c0.9-6.3,6.2-11,12.5-11.2l0.7-0.1c0,0,0.1,0,0.1,0C18.5,13.1,18.6,13.1,18.7,13.1L18.7,13.1z"/>
</g>
</svg>
